<?xml version="1.0" encoding="UTF-8"?>
<svg xmlns="http://www.w3.org/2000/svg" xmlns:xlink="http://www.w3.org/1999/xlink" width="50px" height="50px" viewBox="0 0 50 50" version="1.1">
<g id="surface1">
<path style=" stroke:none;fill-rule:nonzero;fill:rgb(0.392157%,0%,0.784314%);fill-opacity:1;" d="M 36.160156 7.945312 C 28.902344 9.386719 29.421875 15.292969 23.585938 17.773438 C 21.003906 18.871094 15.050781 19.535156 14.402344 19.226562 C 10.453125 17.367188 4.640625 12.722656 4.640625 12.722656 C 4.640625 12.722656 5.15625 16.507812 7.183594 19.773438 C 2.449219 18.652344 0 16.230469 0 16.230469 C 0 16.230469 3.136719 43.5625 24.546875 42.242188 C 40.84375 41.242188 39.871094 26.820312 42.539062 22.625 C 45.203125 18.433594 50 19.300781 50 19.300781 C 50 19.300781 47.066406 5.78125 36.160156 7.945312 Z M 39.972656 16.167969 C 38.976562 16.167969 38.171875 15.359375 38.171875 14.367188 C 38.171875 13.375 38.976562 12.566406 39.972656 12.566406 C 40.964844 12.566406 41.769531 13.375 41.769531 14.367188 C 41.769531 15.359375 40.96875 16.167969 39.972656 16.167969 Z M 39.972656 16.167969 "/>
</g>
</svg>
